<svg width="48.243" height="71.83" viewBox="0 0 48.243 71.83" xmlns="http://www.w3.org/2000/svg"><g id="svgGroup" stroke-linecap="round" fill-rule="evenodd" font-size="9pt" stroke="#000" stroke-width="0.25mm" fill="#000" style="stroke:#000;stroke-width:0.25mm;fill:#000"><path d="M 32.111 1.235 A 25.65 25.65 0 0 0 23.926 0.002 A 28.011 28.011 0 0 0 23.246 0.01 Q 8.707 0.363 3.077 15.92 A 43.121 43.121 0 0 0 2.231 18.531 Q 0 26.233 0 36.379 Q 0 45.511 1.808 52.44 A 35.486 35.486 0 0 0 5.127 60.891 Q 11.28 71.828 23.877 71.828 A 27.89 27.89 0 0 0 25.355 71.79 Q 33.94 71.334 39.386 65.505 A 26.365 26.365 0 0 0 43.995 58.449 Q 46.666 52.584 47.658 44.768 A 78.844 78.844 0 0 0 48.243 34.865 A 80.333 80.333 0 0 0 47.867 26.86 Q 47.413 22.339 46.412 18.565 A 33.413 33.413 0 0 0 43.555 11.184 A 26.681 26.681 0 0 0 43.299 10.722 Q 39.28 3.637 32.111 1.235 Z M 23.829 63.82 Q 30.664 63.82 34.717 57.766 A 17.049 17.049 0 0 0 36.676 53.533 Q 38.77 47.069 38.77 35.207 A 79.768 79.768 0 0 0 38.392 27.189 Q 38.012 23.443 37.252 20.245 A 37.189 37.189 0 0 0 35.84 15.603 A 13.081 13.081 0 0 0 33.397 11.465 Q 30.205 7.912 24.463 7.912 A 12.829 12.829 0 0 0 19.228 8.939 Q 15.354 10.65 13.111 15.212 Q 9.522 22.512 9.522 36.721 A 82.515 82.515 0 0 0 9.746 42.994 Q 9.993 46.219 10.51 48.947 A 33.856 33.856 0 0 0 11.817 53.908 Q 13.952 59.929 17.925 62.293 A 11.324 11.324 0 0 0 23.829 63.82 Z" vector-effect="non-scaling-stroke"/></g></svg>