<svg width="48.342" height="70.167" viewBox="0 0 48.342 70.167" xmlns="http://www.w3.org/2000/svg"><g id="svgGroup" stroke-linecap="round" fill-rule="evenodd" font-size="9pt" stroke="#000" stroke-width="0.25mm" fill="#000" style="stroke:#000;stroke-width:0.25mm;fill:#000"><path d="M 16.406 42.286 L 25.781 36.866 A 90.235 90.235 0 0 0 28.696 35.102 Q 31.688 33.208 33.508 31.648 A 17.653 17.653 0 0 0 34.619 30.616 A 14.475 14.475 0 0 0 37.391 26.774 A 12.282 12.282 0 0 0 38.623 21.339 A 16.427 16.427 0 0 0 38.119 17.155 A 11.729 11.729 0 0 0 34.961 11.647 A 12.298 12.298 0 0 0 28.457 8.346 A 17.659 17.659 0 0 0 25.195 8.058 A 18.485 18.485 0 0 0 20.438 8.629 A 11.689 11.689 0 0 0 12.695 14.894 A 15.586 15.586 0 0 0 11.576 17.892 Q 11.173 19.391 10.94 21.18 A 39.207 39.207 0 0 0 10.645 25.05 L 1.709 25.05 A 43.807 43.807 0 0 1 2.212 18.922 Q 2.713 15.751 3.707 13.12 A 21.974 21.974 0 0 1 5.078 10.157 A 19.009 19.009 0 0 1 18.183 0.718 A 32.545 32.545 0 0 1 25.244 0.001 Q 33.093 0.001 38.18 2.774 A 16.199 16.199 0 0 1 42.798 6.495 A 23.466 23.466 0 0 1 47.034 13.568 A 21.042 21.042 0 0 1 48.34 20.948 A 19.636 19.636 0 0 1 42.524 35.211 A 23.744 23.744 0 0 1 42.432 35.304 A 24.908 24.908 0 0 1 40.085 37.366 Q 37.434 39.447 33.223 41.95 A 129.275 129.275 0 0 1 30.176 43.702 L 23.486 47.413 A 63.878 63.878 0 0 0 20.439 49.197 Q 18.975 50.113 17.774 50.998 A 27.766 27.766 0 0 0 15.967 52.442 A 22.594 22.594 0 0 0 12.596 56.047 A 16.275 16.275 0 0 0 9.814 61.866 L 47.998 61.866 L 47.998 70.167 L 0 70.167 A 48.167 48.167 0 0 1 1.064 62.213 A 35.572 35.572 0 0 1 3.735 54.444 Q 6.22 49.326 12.32 44.922 A 48.992 48.992 0 0 1 16.406 42.286 Z" vector-effect="non-scaling-stroke"/></g></svg>