<svg width="48.878" height="71.925" viewBox="0 0 48.878 71.925" xmlns="http://www.w3.org/2000/svg"><g id="svgGroup" stroke-linecap="round" fill-rule="evenodd" font-size="9pt" stroke="#000" stroke-width="0.25mm" fill="#000" style="stroke:#000;stroke-width:0.25mm;fill:#000"><path d="M 0 48.536 L 9.18 48.536 A 44.037 44.037 0 0 0 9.61 52.015 Q 10.174 55.381 11.206 57.479 A 9.702 9.702 0 0 0 11.719 58.399 Q 14.746 63.286 22.102 63.845 A 26.039 26.039 0 0 0 24.072 63.917 A 21.03 21.03 0 0 0 28.842 63.406 A 14.333 14.333 0 0 0 35.205 60.206 A 12.065 12.065 0 0 0 39.386 51.404 A 15.777 15.777 0 0 0 39.404 50.635 A 18.421 18.421 0 0 0 39.06 46.938 Q 38.629 44.839 37.659 43.269 A 8.674 8.674 0 0 0 34.985 40.528 Q 31.699 38.386 26.509 37.836 A 36.208 36.208 0 0 0 22.705 37.647 A 65.973 65.973 0 0 0 20.923 37.672 Q 20.02 37.696 19.092 37.745 L 19.092 29.981 A 66.363 66.363 0 0 0 19.748 30.048 Q 20.676 30.138 21.365 30.175 A 22.999 22.999 0 0 0 21.387 30.176 A 34.26 34.26 0 0 0 22.351 30.213 A 42.593 42.593 0 0 0 23.389 30.225 A 25.666 25.666 0 0 0 26.706 30.023 Q 29.461 29.664 31.494 28.663 Q 37.061 25.928 37.061 18.897 A 11.753 11.753 0 0 0 36.581 15.451 A 8.979 8.979 0 0 0 33.35 10.841 A 13.802 13.802 0 0 0 24.938 8.01 A 17.029 17.029 0 0 0 24.707 8.008 Q 15.918 8.008 12.549 13.868 A 12.775 12.775 0 0 0 11.423 16.537 Q 10.606 19.231 10.449 23.048 L 1.758 23.048 A 32.543 32.543 0 0 1 2.314 16.873 Q 3.052 13.051 4.771 9.965 A 20.516 20.516 0 0 1 4.883 9.766 Q 10.254 0.001 23.779 0.001 A 38.597 38.597 0 0 1 30.205 0.501 Q 33.65 1.084 36.406 2.345 A 18.195 18.195 0 0 1 40.332 4.761 A 15.398 15.398 0 0 1 45.778 14.058 A 23.253 23.253 0 0 1 46.191 18.555 A 19.524 19.524 0 0 1 45.683 23.132 A 13.726 13.726 0 0 1 42.725 29.005 A 13.9 13.9 0 0 1 38.788 32.136 A 17.201 17.201 0 0 1 37.158 32.911 A 16.338 16.338 0 0 1 42.305 35.288 A 14.642 14.642 0 0 1 45.776 38.746 A 16.31 16.31 0 0 1 48.574 45.599 A 21.971 21.971 0 0 1 48.877 49.317 A 24.762 24.762 0 0 1 47.704 57.102 A 20.517 20.517 0 0 1 42.285 65.626 A 21.465 21.465 0 0 1 33.275 70.675 Q 29.917 71.651 25.891 71.865 A 43.575 43.575 0 0 1 23.584 71.924 A 35.657 35.657 0 0 1 16.983 71.355 Q 9.566 69.956 5.591 65.113 Q 0 58.301 0 48.536 Z" vector-effect="non-scaling-stroke"/></g></svg>