<svg width="48.147" height="70.511" viewBox="0 0 48.147 70.511" xmlns="http://www.w3.org/2000/svg"><g id="svgGroup" stroke-linecap="round" fill-rule="evenodd" font-size="9pt" stroke="#000" stroke-width="0.25mm" fill="#000" style="stroke:#000;stroke-width:0.25mm;fill:#000"><path d="M 0 50.928 L 9.131 50.928 A 15.732 15.732 0 0 0 10.27 55.363 A 11.46 11.46 0 0 0 16.113 61.328 Q 19.238 62.793 23.34 62.793 A 19.394 19.394 0 0 0 27.827 62.307 Q 31.185 61.508 33.476 59.4 A 11.867 11.867 0 0 0 34.912 57.812 Q 38.672 52.832 38.672 46.777 A 19.24 19.24 0 0 0 38.144 42.134 A 12.925 12.925 0 0 0 34.204 35.449 Q 29.736 31.445 23.486 31.445 A 19.623 19.623 0 0 0 19.776 31.779 A 14.111 14.111 0 0 0 15.698 33.203 Q 12.451 34.961 10.156 38.086 L 2.539 37.646 L 7.861 0 L 44.189 0 L 44.189 8.496 L 14.453 8.496 L 11.475 27.93 A 27.027 27.027 0 0 1 13.564 26.484 Q 14.631 25.821 15.647 25.352 A 15.572 15.572 0 0 1 16.113 25.146 A 20.749 20.749 0 0 1 20.894 23.844 A 28.032 28.032 0 0 1 25.146 23.535 Q 34.766 23.535 41.455 29.736 A 20.368 20.368 0 0 1 48.13 44.574 A 26.458 26.458 0 0 1 48.145 45.459 Q 48.145 55.371 42.017 62.939 A 19.006 19.006 0 0 1 32.972 69.007 Q 28.44 70.508 22.461 70.508 A 24.908 24.908 0 0 1 7.349 65.698 A 17.158 17.158 0 0 1 1.053 56.65 A 26.224 26.224 0 0 1 0 50.928 Z" vector-effect="non-scaling-stroke"/></g></svg>