<svg width="48.633" height="68.75" viewBox="0 0 48.633 68.75" xmlns="http://www.w3.org/2000/svg"><g id="svgGroup" stroke-linecap="round" fill-rule="evenodd" font-size="9pt" stroke="#000" stroke-width="0.25mm" fill="#000" style="stroke:#000;stroke-width:0.25mm;fill:#000"><path d="M 0 0 L 48.633 0 L 48.633 7.666 A 33.321 33.321 0 0 0 46.809 9.604 Q 44.809 11.888 42.231 15.428 A 173.502 173.502 0 0 0 39.673 19.043 Q 34.082 27.148 29.785 36.523 Q 25.537 45.654 23.34 53.174 A 88.171 88.171 0 0 0 22.58 55.96 Q 21.362 60.693 19.678 68.75 L 9.961 68.75 A 113.73 113.73 0 0 1 18.871 40.073 A 138.213 138.213 0 0 1 24.609 28.906 A 143.152 143.152 0 0 1 31.91 17.455 A 109.347 109.347 0 0 1 38.672 8.838 L 0 8.838 L 0 0 Z" vector-effect="non-scaling-stroke"/></g></svg>