<svg width="48.052" height="72.121" viewBox="0 0 48.052 72.121" xmlns="http://www.w3.org/2000/svg"><g id="svgGroup" stroke-linecap="round" fill-rule="evenodd" font-size="9pt" stroke="#000" stroke-width="0.25mm" fill="#000" style="stroke:#000;stroke-width:0.25mm;fill:#000"><path d="M 6.299 29.2 A 12.229 12.229 0 0 0 7.208 30.039 Q 9.101 31.62 12.012 32.862 A 23.394 23.394 0 0 0 8.418 34.661 A 17.374 17.374 0 0 0 3.028 39.771 A 17.239 17.239 0 0 0 0.705 44.898 A 21.305 21.305 0 0 0 0.001 50.489 A 27.003 27.003 0 0 0 0.363 55.011 A 17.969 17.969 0 0 0 7.056 66.578 A 25.016 25.016 0 0 0 15.715 70.982 A 31.162 31.162 0 0 0 24.317 72.12 A 39.185 39.185 0 0 0 24.976 72.114 Q 28.841 72.049 32.092 71.217 A 20.201 20.201 0 0 0 41.846 65.699 A 21.685 21.685 0 0 0 48.047 50.05 A 23.112 23.112 0 0 0 47.775 46.437 A 16.612 16.612 0 0 0 43.409 37.354 Q 41.92 35.808 39.769 34.47 A 29.162 29.162 0 0 0 36.573 32.764 Q 39.014 31.391 40.655 29.98 A 13.337 13.337 0 0 0 42.335 28.272 A 13.215 13.215 0 0 0 42.651 27.871 Q 45.655 23.9 45.655 17.677 A 15.586 15.586 0 0 0 43.693 9.991 A 18.984 18.984 0 0 0 39.942 5.299 Q 36.193 1.822 30.572 0.627 A 30.785 30.785 0 0 0 24.17 0.001 A 36.51 36.51 0 0 0 22.555 0.036 Q 19.118 0.188 16.238 1 A 18.405 18.405 0 0 0 8.106 5.616 A 22.767 22.767 0 0 0 7.93 5.792 A 18.213 18.213 0 0 0 2.442 19.044 A 18.156 18.156 0 0 0 2.601 21.486 A 13.182 13.182 0 0 0 6.299 29.2 Z M 24.512 64.112 A 18.614 18.614 0 0 0 29.211 63.547 A 14.055 14.055 0 0 0 34.644 60.816 A 10.555 10.555 0 0 0 38.218 55.007 Q 38.672 53.175 38.672 50.977 Q 38.672 44.19 34.522 40.675 A 14.553 14.553 0 0 0 27.707 37.502 A 20.433 20.433 0 0 0 23.878 37.159 A 18.049 18.049 0 0 0 19.226 37.729 A 13.421 13.421 0 0 0 13.599 40.748 A 11.771 11.771 0 0 0 9.884 47.595 A 17.245 17.245 0 0 0 9.62 50.684 A 13.532 13.532 0 0 0 13.257 60.133 A 11.273 11.273 0 0 0 18.067 63.178 Q 19.875 63.791 22.086 64.002 A 25.6 25.6 0 0 0 24.512 64.112 Z M 23.975 29.493 Q 29.786 29.493 33.057 26.246 Q 36.329 22.999 36.329 18.507 A 9.604 9.604 0 0 0 34.502 12.904 A 13.369 13.369 0 0 0 33.204 11.329 A 9.735 9.735 0 0 0 29.186 8.85 Q 27.64 8.33 25.753 8.151 A 21.974 21.974 0 0 0 23.682 8.057 A 19.499 19.499 0 0 0 20.39 8.316 Q 16.538 8.978 14.503 11.329 Q 11.67 14.6 11.67 18.995 A 10.622 10.622 0 0 0 12.229 22.52 A 8.865 8.865 0 0 0 15.333 26.71 A 13.657 13.657 0 0 0 23.015 29.466 A 17.165 17.165 0 0 0 23.975 29.493 Z" vector-effect="non-scaling-stroke"/></g></svg>