<svg width="47.269" height="71.976" viewBox="0 0 47.269 71.976" xmlns="http://www.w3.org/2000/svg"><g id="svgGroup" stroke-linecap="round" fill-rule="evenodd" font-size="9pt" stroke="#000" stroke-width="0.25mm" fill="#000" style="stroke:#000;stroke-width:0.25mm;fill:#000"><path d="M 0.833 53.127 L 9.72 53.127 A 16.332 16.332 0 0 0 10.378 57.051 A 9.962 9.962 0 0 0 15.335 63.186 A 12.065 12.065 0 0 0 20.15 64.599 A 14.674 14.674 0 0 0 21.389 64.651 A 13.333 13.333 0 0 0 31.28 60.342 A 18.6 18.6 0 0 0 32.132 59.402 Q 35.516 55.404 37.399 45.133 A 107.888 107.888 0 0 0 38.431 38.088 A 18.973 18.973 0 0 1 35.49 41.726 A 14.765 14.765 0 0 1 31.18 44.607 Q 26.858 46.487 21.878 46.487 A 26.152 26.152 0 0 1 14.958 45.619 A 19.032 19.032 0 0 1 5.887 40.188 A 21.568 21.568 0 0 1 0.305 28.283 A 29.674 29.674 0 0 1 0.003 23.977 A 25.953 25.953 0 0 1 5.813 7.229 A 18.702 18.702 0 0 1 16.712 0.639 A 28.853 28.853 0 0 1 22.952 0.002 Q 36.758 0.002 42.834 11.238 A 29.141 29.141 0 0 1 44.046 13.772 A 36.793 36.793 0 0 1 46.235 21.051 Q 47.268 26.273 47.268 32.717 A 72.812 72.812 0 0 1 46.363 44.47 A 54.524 54.524 0 0 1 43.411 55.471 Q 37.105 71.741 22.163 71.972 A 27.958 27.958 0 0 1 21.731 71.975 A 31.365 31.365 0 0 1 15.804 71.451 Q 12.341 70.783 9.657 69.268 A 15.925 15.925 0 0 1 6.155 66.604 A 18.165 18.165 0 0 1 0.854 54.13 A 23.933 23.933 0 0 1 0.833 53.127 Z M 23.05 38.772 A 14.915 14.915 0 0 0 32.392 35.489 A 18.58 18.58 0 0 0 32.596 35.33 A 10.098 10.098 0 0 0 35.624 31.152 Q 36.331 29.425 36.651 27.236 A 27.298 27.298 0 0 0 36.917 23.293 A 24.47 24.47 0 0 0 36.575 19.059 Q 36.163 16.721 35.257 14.884 A 11.182 11.182 0 0 0 33.035 11.794 Q 29.153 8.01 23.147 8.01 A 15.498 15.498 0 0 0 18.56 8.657 A 12.12 12.12 0 0 0 12.918 12.332 A 14.729 14.729 0 0 0 9.711 18.677 Q 9.17 20.908 9.136 23.528 A 27.198 27.198 0 0 0 9.134 23.879 A 22.795 22.795 0 0 0 9.544 28.339 Q 10.301 32.132 12.454 34.744 Q 15.3 38.197 21.052 38.69 A 23.398 23.398 0 0 0 23.05 38.772 Z" vector-effect="non-scaling-stroke"/></g></svg>