<svg width="49.464" height="55.324" viewBox="0 0 49.464 55.324" xmlns="http://www.w3.org/2000/svg"><g id="svgGroup" stroke-linecap="round" fill-rule="evenodd" font-size="9pt" stroke="#000" stroke-width="0.25mm" fill="#000" style="stroke:#000;stroke-width:0.25mm;fill:#000"><path d="M 16.456 23.633 L 30.469 21.876 A 7.281 7.281 0 0 0 32.071 21.496 Q 33.096 21.116 33.768 20.426 A 4.046 4.046 0 0 0 34.522 19.336 Q 35.082 18.216 35.107 16.158 A 15.982 15.982 0 0 0 35.108 15.967 A 9.885 9.885 0 0 0 34.796 13.4 A 6.513 6.513 0 0 0 31.91 9.449 A 11.212 11.212 0 0 0 29.057 8.194 Q 27.662 7.784 25.971 7.592 A 28.554 28.554 0 0 0 22.755 7.422 Q 18.583 7.422 15.882 8.785 A 8.372 8.372 0 0 0 12.989 11.133 A 8.016 8.016 0 0 0 11.92 12.997 Q 11.533 13.921 11.266 15.059 A 20.14 20.14 0 0 0 10.889 17.237 L 2.686 17.237 A 24.627 24.627 0 0 1 3.281 12.264 Q 3.954 9.384 5.374 7.264 A 11.85 11.85 0 0 1 8.961 3.785 A 24.739 24.739 0 0 1 19.56 0.182 A 31.038 31.038 0 0 1 22.95 0.001 A 39.621 39.621 0 0 1 29.135 0.455 Q 34.249 1.264 37.94 3.516 Q 43.653 7.032 43.653 14.454 L 43.653 44.581 A 5.447 5.447 0 0 0 43.719 45.457 Q 43.846 46.233 44.215 46.778 Q 44.776 47.608 46.583 47.608 Q 47.131 47.608 47.807 47.544 A 18.207 18.207 0 0 0 47.901 47.535 Q 48.633 47.461 49.464 47.315 L 49.464 53.809 Q 47.413 54.395 46.339 54.542 Q 45.368 54.674 43.76 54.687 A 44.189 44.189 0 0 1 43.409 54.688 A 10.026 10.026 0 0 1 40.814 54.373 A 6.589 6.589 0 0 1 36.817 51.465 Q 36.062 50.263 35.62 48.361 A 19.963 19.963 0 0 1 35.303 46.631 A 18.62 18.62 0 0 1 32.032 49.915 Q 30.103 51.441 27.589 52.735 A 23.63 23.63 0 0 1 17.444 55.307 A 27.786 27.786 0 0 1 16.505 55.323 Q 9.229 55.323 4.615 50.904 A 14.614 14.614 0 0 1 0.005 40.257 A 18.82 18.82 0 0 1 0.001 39.844 A 18.737 18.737 0 0 1 0.537 35.229 A 12.881 12.881 0 0 1 4.542 28.565 A 19.126 19.126 0 0 1 11.103 24.836 A 27.003 27.003 0 0 1 16.456 23.633 Z M 34.864 34.034 L 34.864 26.954 Q 33.544 27.794 31.601 28.404 A 22.262 22.262 0 0 1 30.714 28.663 A 35.81 35.81 0 0 1 26.345 29.56 A 32.501 32.501 0 0 1 25.733 29.639 L 20.411 30.323 A 36.049 36.049 0 0 0 17.781 30.764 Q 15.232 31.297 13.62 32.116 A 8.959 8.959 0 0 0 13.233 32.325 A 7.773 7.773 0 0 0 10.324 35.077 Q 9.18 36.977 9.18 39.649 A 8.39 8.39 0 0 0 9.605 42.379 A 7.004 7.004 0 0 0 11.964 45.655 Q 14.747 47.852 18.555 47.852 A 20.042 20.042 0 0 0 27.54 45.704 A 14.098 14.098 0 0 0 31.7 42.726 Q 34.37 39.887 34.787 35.651 A 16.499 16.499 0 0 0 34.864 34.034 Z" vector-effect="non-scaling-stroke"/></g></svg>
