<svg width="46.046" height="73.633" viewBox="0 0 46.046 73.633" xmlns="http://www.w3.org/2000/svg"><g id="svgGroup" stroke-linecap="round" fill-rule="evenodd" font-size="9pt" stroke="#000" stroke-width="0.25mm" fill="#000" style="stroke:#000;stroke-width:0.25mm;fill:#000"><path d="M 0 71.973 L 0 0 L 8.545 0 L 8.545 26.025 A 19.807 19.807 0 0 1 13.909 21.129 A 18.834 18.834 0 0 1 15.43 20.288 Q 19.434 18.311 24.121 18.311 A 23.118 23.118 0 0 1 31.705 19.505 A 19.668 19.668 0 0 1 39.966 25.024 Q 44.834 30.401 45.804 39.863 A 48.707 48.707 0 0 1 46.045 44.824 A 42.187 42.187 0 0 1 45.063 54.166 A 30.092 30.092 0 0 1 40.039 65.43 Q 34.033 73.633 23.389 73.633 A 20.44 20.44 0 0 1 18.612 73.101 A 15.304 15.304 0 0 1 13.33 70.752 A 15.381 15.381 0 0 1 11.611 69.335 Q 10.772 68.543 9.895 67.53 A 37.885 37.885 0 0 1 8.105 65.283 L 8.105 71.973 L 0 71.973 Z M 22.852 65.869 A 14.149 14.149 0 0 0 27.421 65.169 A 11.391 11.391 0 0 0 33.521 60.205 A 21.322 21.322 0 0 0 36.002 54.33 Q 37.061 50.337 37.061 45.264 A 31.899 31.899 0 0 0 36.563 39.473 Q 35.733 34.979 33.521 31.592 A 11.332 11.332 0 0 0 25.364 26.332 A 15.521 15.521 0 0 0 23.096 26.172 Q 17.09 26.172 12.573 30.615 A 13.052 13.052 0 0 0 9.607 35.283 Q 8.08 39.224 8.057 45.083 A 45.782 45.782 0 0 0 8.057 45.264 A 48.044 48.044 0 0 0 8.276 50.004 Q 8.508 52.339 8.986 54.306 A 21.065 21.065 0 0 0 9.912 57.227 Q 13.379 65.869 22.852 65.869 Z" vector-effect="non-scaling-stroke"/></g></svg>