<svg width="44.776" height="55.324" viewBox="0 0 44.776 55.324" xmlns="http://www.w3.org/2000/svg"><g id="svgGroup" stroke-linecap="round" fill-rule="evenodd" font-size="9pt" stroke="#000" stroke-width="0.25mm" fill="#000" style="stroke:#000;stroke-width:0.25mm;fill:#000"><path d="M 44.776 19.092 L 36.231 19.092 A 18.022 18.022 0 0 0 35.018 14.825 A 14.317 14.317 0 0 0 32.667 11.06 A 8.484 8.484 0 0 0 29.043 8.662 Q 27.646 8.162 25.921 7.974 A 20.289 20.289 0 0 0 23.731 7.862 A 13.243 13.243 0 0 0 18.235 8.956 Q 14.013 10.858 11.72 16.065 Q 9.716 20.614 9.425 26.983 A 48.585 48.585 0 0 0 9.376 29.2 A 30.923 30.923 0 0 0 9.924 35.176 Q 10.675 38.989 12.454 42.03 A 19.36 19.36 0 0 0 12.696 42.432 A 10.835 10.835 0 0 0 20.603 47.614 A 16.368 16.368 0 0 0 23.145 47.803 A 14.426 14.426 0 0 0 26.892 47.343 A 10.394 10.394 0 0 0 31.812 44.459 A 15.451 15.451 0 0 0 34.652 40.209 Q 35.502 38.368 36.042 36.141 A 27.82 27.82 0 0 0 36.231 35.303 L 44.776 35.303 Q 43.739 42.666 40.5 47.227 A 16.837 16.837 0 0 1 37.452 50.513 A 20.736 20.736 0 0 1 28.165 54.793 A 29.267 29.267 0 0 1 22.462 55.323 Q 12.208 55.323 6.104 47.828 A 26.864 26.864 0 0 1 0.432 34.805 A 36.44 36.44 0 0 1 0.001 29.102 A 45.739 45.739 0 0 1 0.721 20.723 Q 1.62 15.906 3.64 12.111 A 23.593 23.593 0 0 1 6.69 7.667 A 21.459 21.459 0 0 1 22.294 0.039 A 26.958 26.958 0 0 1 23.731 0.001 Q 32.569 0.001 38.111 4.298 Q 43.653 8.594 44.776 19.092 Z" vector-effect="non-scaling-stroke"/></g></svg>