<svg width="63.624" height="75.54" viewBox="0 0 63.624 75.54" xmlns="http://www.w3.org/2000/svg"><g id="svgGroup" stroke-linecap="round" fill-rule="evenodd" font-size="9pt" stroke="#000" stroke-width="0.25mm" fill="#000" style="stroke:#000;stroke-width:0.25mm;fill:#000"><path d="M 62.941 23.487 L 53.468 23.487 A 22.413 22.413 0 0 0 51.255 17.62 A 18.242 18.242 0 0 0 47.047 12.501 Q 42.238 8.448 33.546 8.448 A 24.467 24.467 0 0 0 25.332 9.774 A 21.015 21.015 0 0 0 16.432 15.895 A 23.029 23.029 0 0 0 12.122 23.505 Q 9.913 29.77 9.913 38.722 A 44.092 44.092 0 0 0 10.707 47.331 Q 12.074 54.197 15.797 59.156 A 19.026 19.026 0 0 0 28.038 66.534 A 29.226 29.226 0 0 0 33.351 66.993 A 22.224 22.224 0 0 0 40.41 65.928 A 17.901 17.901 0 0 0 49.708 58.741 A 23.997 23.997 0 0 0 52.025 54.415 Q 53.328 51.298 54.152 47.316 L 63.624 47.316 Q 62.355 58.644 55.226 66.31 Q 46.681 75.538 32.179 75.538 A 34.116 34.116 0 0 1 21.506 73.93 A 28.886 28.886 0 0 1 11.183 67.97 Q 1.639 59.426 0.241 42.951 A 69.691 69.691 0 0 1 0.001 37.062 A 49.209 49.209 0 0 1 1.283 25.536 A 35.388 35.388 0 0 1 8.4 11.036 A 29.655 29.655 0 0 1 29.094 0.219 A 42.307 42.307 0 0 1 33.449 0.001 A 41.513 41.513 0 0 1 41.913 0.811 Q 49.598 2.412 54.591 7.179 A 29.481 29.481 0 0 1 59.854 13.77 A 23.532 23.532 0 0 1 62.941 23.487 Z" vector-effect="non-scaling-stroke"/></g></svg>