<svg width="46.339" height="73.828" viewBox="0 0 46.339 73.828" xmlns="http://www.w3.org/2000/svg"><g id="svgGroup" stroke-linecap="round" fill-rule="evenodd" font-size="9pt" stroke="#000" stroke-width="0.25mm" fill="#000" style="stroke:#000;stroke-width:0.25mm;fill:#000"><path d="M 37.892 26.416 L 37.892 0 L 46.339 0 L 46.339 71.973 L 38.429 71.973 L 38.429 64.697 A 22.941 22.941 0 0 1 35.526 68.409 A 16.763 16.763 0 0 1 31.153 71.68 A 19.48 19.48 0 0 1 24.803 73.618 A 24.732 24.732 0 0 1 21.534 73.828 A 18.854 18.854 0 0 1 8.243 68.401 A 26.477 26.477 0 0 1 6.398 66.479 A 25.102 25.102 0 0 1 0.977 55.719 Q 0.001 51.692 0.001 46.924 A 37.563 37.563 0 0 1 1.46 36.261 A 31.398 31.398 0 0 1 5.836 27.124 A 18.619 18.619 0 0 1 19.246 18.954 A 25.302 25.302 0 0 1 22.511 18.75 A 23.494 23.494 0 0 1 27.048 19.165 Q 30.155 19.777 32.569 21.289 A 13.48 13.48 0 0 1 34.176 22.487 Q 35.762 23.846 37.594 26.054 A 48.192 48.192 0 0 1 37.892 26.416 Z M 9.278 46.436 A 32.721 32.721 0 0 0 9.861 52.78 Q 10.639 56.717 12.456 59.857 A 20.141 20.141 0 0 0 12.843 60.498 A 11.69 11.69 0 0 0 21.252 65.928 A 18.57 18.57 0 0 0 24.269 66.162 A 11.748 11.748 0 0 0 33.27 62.161 A 16.228 16.228 0 0 0 34.303 60.913 Q 37.275 56.944 38 50.365 A 41.297 41.297 0 0 0 38.234 45.85 Q 38.234 39.945 36.795 35.868 A 14.693 14.693 0 0 0 34.181 31.177 A 13.968 13.968 0 0 0 30.27 27.922 A 12.478 12.478 0 0 0 24.171 26.416 A 14.051 14.051 0 0 0 18.498 27.532 A 13.476 13.476 0 0 0 13.404 31.494 A 16.28 16.28 0 0 0 10.658 36.63 Q 9.278 40.733 9.278 46.436 Z" vector-effect="non-scaling-stroke"/></g></svg>