<svg width="47.755" height="55.325" viewBox="0 0 47.755 55.325" xmlns="http://www.w3.org/2000/svg"><g id="svgGroup" stroke-linecap="round" fill-rule="evenodd" font-size="9pt" stroke="#000" stroke-width="0.25mm" fill="#000" style="stroke:#000;stroke-width:0.25mm;fill:#000"><path d="M 47.755 30.127 L 9.425 30.127 Q 9.669 38.086 13.185 42.896 A 11.291 11.291 0 0 0 20.036 47.281 A 18.065 18.065 0 0 0 24.073 47.705 Q 30.958 47.705 35.06 43.164 A 15.308 15.308 0 0 0 38.38 37.061 L 47.023 37.061 A 13.655 13.655 0 0 1 46.452 39.609 Q 45.867 41.435 44.752 43.481 Q 42.823 47.021 40.431 49.268 A 20.106 20.106 0 0 1 31.966 54.16 A 24.383 24.383 0 0 1 30.519 54.541 A 25.853 25.853 0 0 1 27.137 55.127 Q 25.371 55.319 23.403 55.322 A 41.013 41.013 0 0 1 23.341 55.322 Q 13.575 55.322 6.788 48.218 A 23.323 23.323 0 0 1 1.209 38.102 Q 0.228 34.539 0.044 30.309 A 45.76 45.76 0 0 1 0.001 28.32 Q 0.001 15.723 6.837 7.861 A 22.257 22.257 0 0 1 23.01 0.048 A 29.659 29.659 0 0 1 24.708 0 A 23.854 23.854 0 0 1 35.499 2.612 A 23.082 23.082 0 0 1 39.85 5.399 A 17.843 17.843 0 0 1 43.458 9.375 A 22.225 22.225 0 0 1 46.383 15.895 A 27.266 27.266 0 0 1 46.974 18.604 A 24.007 24.007 0 0 1 47.316 20.679 Q 47.614 23.068 47.71 26.574 A 130.706 130.706 0 0 1 47.755 30.127 Z M 9.669 23.145 L 38.722 23.145 A 33.313 33.313 0 0 0 38.185 19.488 Q 37.807 17.67 37.236 16.166 A 15.191 15.191 0 0 0 36.232 14.014 A 11.971 11.971 0 0 0 27.52 7.948 A 18.874 18.874 0 0 0 24.171 7.666 A 13.745 13.745 0 0 0 17.977 9.049 A 13.895 13.895 0 0 0 14.015 12.036 A 15.857 15.857 0 0 0 9.896 20.701 A 21.111 21.111 0 0 0 9.669 23.145 Z" vector-effect="non-scaling-stroke"/></g></svg>