<svg width="24.756" height="72.754" viewBox="0 0 24.756 72.754" xmlns="http://www.w3.org/2000/svg"><g id="svgGroup" stroke-linecap="round" fill-rule="evenodd" font-size="9pt" stroke="#000" stroke-width="0.25mm" fill="#000" style="stroke:#000;stroke-width:0.25mm;fill:#000"><path d="M 24.756 0.195 L 24.756 8.203 A 158.092 158.092 0 0 0 24.12 8.159 Q 23.28 8.102 22.825 8.083 A 18.551 18.551 0 0 0 22.778 8.081 A 30.949 30.949 0 0 0 22.044 8.06 A 25.492 25.492 0 0 0 21.631 8.057 A 11.775 11.775 0 0 0 20.033 8.156 Q 17.456 8.511 16.846 10.132 A 6.91 6.91 0 0 0 16.546 11.32 Q 16.064 14.032 16.064 20.703 L 24.756 20.703 L 24.756 27.637 L 15.967 27.637 L 15.967 72.754 L 7.275 72.754 L 7.275 27.637 L 0 27.637 L 0 20.703 L 7.275 20.703 L 7.275 12.5 A 29.48 29.48 0 0 1 7.505 9.656 Q 7.885 6.815 8.831 5.07 A 7.061 7.061 0 0 1 9.18 4.492 Q 12.231 0.037 20.902 0 A 34.116 34.116 0 0 1 21.045 0 A 30.655 30.655 0 0 1 22.644 0.043 A 33.536 33.536 0 0 1 22.754 0.049 Q 23.509 0.091 24.445 0.169 A 88.218 88.218 0 0 1 24.756 0.195 Z" vector-effect="non-scaling-stroke"/></g></svg>