<svg width="45.851" height="75.343" viewBox="0 0 45.851 75.343" xmlns="http://www.w3.org/2000/svg"><g id="svgGroup" stroke-linecap="round" fill-rule="evenodd" font-size="9pt" stroke="#000" stroke-width="0.25mm" fill="#000" style="stroke:#000;stroke-width:0.25mm;fill:#000"><path d="M 37.745 8.009 L 37.745 1.417 L 45.851 1.417 L 45.851 48.976 A 55.387 55.387 0 0 1 45.564 54.791 Q 45.25 57.764 44.589 60.241 A 22.768 22.768 0 0 1 42.921 64.698 A 18.575 18.575 0 0 1 30.088 74.489 Q 26.677 75.316 22.535 75.342 A 42.968 42.968 0 0 1 22.267 75.343 A 31.26 31.26 0 0 1 15.732 74.694 A 22.332 22.332 0 0 1 8.058 71.559 A 13.816 13.816 0 0 1 2.161 63.066 A 20.744 20.744 0 0 1 1.612 59.718 L 10.548 59.718 Q 11.056 62.53 12.375 64.311 A 7.386 7.386 0 0 0 13.087 65.138 A 9.017 9.017 0 0 0 16.347 67.14 Q 17.763 67.662 19.521 67.89 A 22.899 22.899 0 0 0 22.462 68.067 Q 28.605 68.067 32.169 65.434 A 10.909 10.909 0 0 0 35.694 60.939 Q 37.533 56.778 37.406 46.145 A 120.694 120.694 0 0 0 37.403 45.948 A 19.273 19.273 0 0 1 34.399 49.532 A 15.68 15.68 0 0 1 31.056 51.905 A 15.083 15.083 0 0 1 27.646 53.17 Q 25.995 53.579 24.046 53.745 A 33.065 33.065 0 0 1 21.241 53.858 Q 12.745 53.858 6.373 47.828 A 17.704 17.704 0 0 1 2.131 41.337 Q 0.999 38.463 0.469 34.845 A 48.143 48.143 0 0 1 0.001 27.882 A 43.26 43.26 0 0 1 0.726 19.707 Q 1.632 15.001 3.672 11.312 A 22.719 22.719 0 0 1 6.422 7.374 A 22.582 22.582 0 0 1 12.284 2.482 A 19.197 19.197 0 0 1 21.925 0.001 A 21.08 21.08 0 0 1 27.833 0.8 A 17.699 17.699 0 0 1 32.667 3.028 Q 34.707 4.429 36.813 6.878 A 35.83 35.83 0 0 1 37.745 8.009 Z M 37.745 26.857 A 37.806 37.806 0 0 0 37.428 21.789 Q 36.619 15.821 33.741 12.452 Q 29.737 7.765 23.536 7.765 A 15.128 15.128 0 0 0 18.252 8.635 Q 13.177 10.515 10.841 16.456 A 22.97 22.97 0 0 0 9.74 20.34 Q 9.343 22.351 9.169 24.717 A 53.34 53.34 0 0 0 9.034 28.614 Q 9.034 34.332 10.536 38.281 A 14.528 14.528 0 0 0 12.623 42.066 A 11.417 11.417 0 0 0 20.926 46.622 A 14.864 14.864 0 0 0 22.267 46.681 A 16.179 16.179 0 0 0 27.878 45.761 Q 32.204 44.171 34.725 39.836 A 18.622 18.622 0 0 0 35.597 38.136 A 24.221 24.221 0 0 0 37.334 32.188 A 32.992 32.992 0 0 0 37.745 26.857 Z" vector-effect="non-scaling-stroke"/></g></svg>