<svg width="42.627" height="71.973" viewBox="0 0 42.627 71.973" xmlns="http://www.w3.org/2000/svg"><g id="svgGroup" stroke-linecap="round" fill-rule="evenodd" font-size="9pt" stroke="#000" stroke-width="0.25mm" fill="#000" style="stroke:#000;stroke-width:0.25mm;fill:#000"><path d="M 0 71.973 L 0 0 L 8.789 0 L 8.789 26.758 A 43.051 43.051 0 0 1 10.657 24.54 Q 12.469 22.541 14.038 21.439 A 11.586 11.586 0 0 1 14.404 21.191 A 16.435 16.435 0 0 1 19.997 18.908 Q 22.165 18.439 24.665 18.41 A 28.579 28.579 0 0 1 25 18.408 A 25.116 25.116 0 0 1 30.674 19.003 Q 37.485 20.584 40.43 26.367 Q 42.627 30.713 42.627 38.428 L 42.627 71.973 L 33.594 71.973 L 33.594 39.014 A 36.144 36.144 0 0 0 33.484 36.093 Q 33.193 32.518 32.129 30.566 A 7.839 7.839 0 0 0 27.34 26.824 Q 25.913 26.391 24.155 26.296 A 18.763 18.763 0 0 0 23.145 26.27 A 14.859 14.859 0 0 0 13.651 29.685 A 18.81 18.81 0 0 0 13.232 30.029 A 10.274 10.274 0 0 0 10.525 33.79 Q 9.064 37.088 8.833 42.237 A 44.651 44.651 0 0 0 8.789 44.238 L 8.789 71.973 L 0 71.973 Z" vector-effect="non-scaling-stroke"/></g></svg>