<svg width="17.09" height="92.822" viewBox="0 0 17.09 92.822" xmlns="http://www.w3.org/2000/svg"><g id="svgGroup" stroke-linecap="round" fill-rule="evenodd" font-size="9pt" stroke="#000" stroke-width="0.25mm" fill="#000" style="stroke:#000;stroke-width:0.25mm;fill:#000"><path d="M 0 92.578 L 0 84.961 A 67.972 67.972 0 0 0 2.05 84.865 Q 5.148 84.668 6.454 84.221 A 2.557 2.557 0 0 0 7.104 83.911 Q 8.163 83.155 8.285 79.551 A 29.232 29.232 0 0 0 8.301 78.564 L 8.301 19.678 L 17.09 19.678 L 17.09 79.492 A 28.297 28.297 0 0 1 16.943 82.478 Q 16.605 85.651 15.49 87.618 A 7.664 7.664 0 0 1 15.234 88.037 Q 12.158 92.822 3.564 92.822 A 18.561 18.561 0 0 1 2.657 92.799 A 21.924 21.924 0 0 1 2.222 92.773 Q 1.54 92.726 0.112 92.589 A 231.403 231.403 0 0 1 0 92.578 Z M 17.09 0 L 17.09 10.156 L 8.301 10.156 L 8.301 0 L 17.09 0 Z" vector-effect="non-scaling-stroke"/></g></svg>