<svg width="70.361" height="53.468" viewBox="0 0 70.361 53.468" xmlns="http://www.w3.org/2000/svg"><g id="svgGroup" stroke-linecap="round" fill-rule="evenodd" font-size="9pt" stroke="#000" stroke-width="0.25mm" fill="#000" style="stroke:#000;stroke-width:0.25mm;fill:#000"><path d="M 0 53.468 L 0 1.174 L 8.691 1.174 L 8.691 8.595 Q 11.782 4.781 14.299 3.019 A 13.827 13.827 0 0 1 14.355 2.98 A 17.034 17.034 0 0 1 24.219 0.002 Q 30.469 0.002 34.277 3.078 A 12.189 12.189 0 0 1 36.075 4.924 Q 37.191 6.324 38.184 8.254 A 21.429 21.429 0 0 1 41.37 4.598 A 17.192 17.192 0 0 1 45.068 2.028 A 18.51 18.51 0 0 1 51.844 0.099 A 22.56 22.56 0 0 1 53.955 0.002 A 22.514 22.514 0 0 1 59.321 0.596 A 12.998 12.998 0 0 1 68.311 7.619 Q 69.796 10.589 70.205 15.044 A 39.496 39.496 0 0 1 70.361 18.654 L 70.361 53.468 L 61.23 53.468 L 61.23 17.14 Q 61.23 14.266 60.44 12.382 A 5.685 5.685 0 0 0 58.618 9.963 A 9.722 9.722 0 0 0 54.163 8.147 A 12.898 12.898 0 0 0 52.246 8.009 A 12.649 12.649 0 0 0 43.335 11.476 Q 40.616 14 39.876 18.981 A 27.768 27.768 0 0 0 39.6 23.049 L 39.6 53.468 L 30.664 53.468 L 30.664 19.338 A 35.699 35.699 0 0 0 30.574 16.713 Q 30.327 13.367 29.395 11.574 A 6.635 6.635 0 0 0 25.144 8.307 Q 23.921 7.967 22.422 7.92 A 15.632 15.632 0 0 0 21.924 7.912 A 12.381 12.381 0 0 0 14.361 10.508 A 16.79 16.79 0 0 0 12.866 11.769 Q 8.789 15.627 8.789 25.734 L 8.789 53.468 L 0 53.468 Z" vector-effect="non-scaling-stroke"/></g></svg>