<svg width="42.627" height="53.468" viewBox="0 0 42.627 53.468" xmlns="http://www.w3.org/2000/svg"><g id="svgGroup" stroke-linecap="round" fill-rule="evenodd" font-size="9pt" stroke="#000" stroke-width="0.25mm" fill="#000" style="stroke:#000;stroke-width:0.25mm;fill:#000"><path d="M 0 53.468 L 0 1.173 L 8.35 1.173 L 8.35 8.595 A 29.666 29.666 0 0 1 11.437 5.293 Q 13.314 3.586 15.292 2.481 A 17.315 17.315 0 0 1 16.211 2.003 A 20.337 20.337 0 0 1 23.529 0.074 A 24.496 24.496 0 0 1 25.439 0.001 A 24.592 24.592 0 0 1 30.987 0.582 Q 34.47 1.389 36.907 3.319 A 13.075 13.075 0 0 1 40.479 7.765 Q 42.536 11.833 42.623 19.26 A 56.557 56.557 0 0 1 42.627 19.923 L 42.627 53.468 L 33.691 53.468 L 33.691 20.509 Q 33.691 15.724 32.275 12.794 A 8.039 8.039 0 0 0 26.617 8.216 A 12.413 12.413 0 0 0 23.779 7.911 A 25.449 25.449 0 0 0 21.764 7.986 Q 20.767 8.066 19.918 8.229 A 11.223 11.223 0 0 0 18.652 8.546 Q 15.039 9.62 12.305 12.843 A 15.159 15.159 0 0 0 10.583 15.307 A 11.432 11.432 0 0 0 9.448 18.19 A 18.873 18.873 0 0 0 9.104 20.118 Q 8.833 22.191 8.795 25.101 A 74.495 74.495 0 0 0 8.789 26.075 L 8.789 53.468 L 0 53.468 Z" vector-effect="non-scaling-stroke"/></g></svg>