<svg width="48.732" height="55.72" viewBox="0 0 48.732 55.72" xmlns="http://www.w3.org/2000/svg"><g id="svgGroup" stroke-linecap="round" fill-rule="evenodd" font-size="9pt" stroke="#000" stroke-width="0.25mm" fill="#000" style="stroke:#000;stroke-width:0.25mm;fill:#000"><path d="M 41.749 6.744 A 23.68 23.68 0 0 0 24.659 0.006 A 30.52 30.52 0 0 0 22.247 0.1 A 21.925 21.925 0 0 0 6.69 7.819 A 24.697 24.697 0 0 0 4.827 10.294 Q 0.001 17.617 0.001 28.815 A 46.255 46.255 0 0 0 0.017 30.052 Q 0.132 34.335 1.049 37.986 A 24.839 24.839 0 0 0 6.349 48.419 A 20.319 20.319 0 0 0 15.735 54.605 A 25.704 25.704 0 0 0 23.487 55.719 A 40.262 40.262 0 0 0 23.746 55.718 Q 36.488 55.636 42.579 47.467 A 30.101 30.101 0 0 0 47.793 35.778 A 42.85 42.85 0 0 0 48.732 26.569 Q 48.732 13.483 41.749 6.744 Z M 24.317 48.151 A 17.895 17.895 0 0 0 28.799 47.627 A 11.074 11.074 0 0 0 36.305 41.534 A 32.011 32.011 0 0 0 39.438 29.8 A 38.507 38.507 0 0 0 39.552 26.813 Q 39.552 19.489 37.208 14.899 A 12.468 12.468 0 0 0 28.377 8.069 A 18.715 18.715 0 0 0 24.415 7.672 Q 16.358 7.672 12.696 13.824 A 25.338 25.338 0 0 0 9.639 22.026 A 34.82 34.82 0 0 0 9.034 28.668 Q 9.034 37.018 12.696 42.584 Q 16.358 48.151 24.317 48.151 Z" vector-effect="non-scaling-stroke"/></g></svg>