<svg width="46.046" height="74.416" viewBox="0 0 46.046 74.416" xmlns="http://www.w3.org/2000/svg"><g id="svgGroup" stroke-linecap="round" fill-rule="evenodd" font-size="9pt" stroke="#000" stroke-width="0.25mm" fill="#000" style="stroke:#000;stroke-width:0.25mm;fill:#000"><path d="M 0 74.416 L 0 1.515 L 8.545 1.515 L 8.545 8.449 A 24.82 24.82 0 0 1 11.214 5.374 A 18.683 18.683 0 0 1 14.307 2.931 A 17.723 17.723 0 0 1 22.115 0.152 A 22.635 22.635 0 0 1 24.756 0.002 A 19.504 19.504 0 0 1 39.157 6.088 A 25.106 25.106 0 0 1 39.844 6.813 Q 45.104 12.591 45.902 22.569 A 46.462 46.462 0 0 1 46.045 26.271 A 51.346 51.346 0 0 1 45.338 35.112 Q 43.532 45.421 37.109 50.685 A 20.188 20.188 0 0 1 23.926 55.324 Q 18.127 55.324 14.163 52.831 A 14.188 14.188 0 0 1 14.014 52.736 A 13.55 13.55 0 0 1 12.378 51.515 Q 10.702 50.074 8.789 47.707 L 8.789 74.416 L 0 74.416 Z M 22.754 47.658 A 12.294 12.294 0 0 0 32.067 43.572 A 16.739 16.739 0 0 0 32.983 42.506 Q 37.061 37.355 37.061 27.101 A 36.233 36.233 0 0 0 36.739 22.141 Q 36.381 19.553 35.624 17.354 A 20.782 20.782 0 0 0 35.254 16.359 Q 31.836 7.716 22.754 7.716 A 13.901 13.901 0 0 0 17.326 8.723 Q 13.804 10.202 11.654 13.855 A 18.54 18.54 0 0 0 10.254 16.847 A 25.843 25.843 0 0 0 9.101 21.157 Q 8.447 24.726 8.447 29.25 A 33.861 33.861 0 0 0 8.745 33.871 Q 9.079 36.29 9.786 38.335 A 18.814 18.814 0 0 0 10.254 39.552 A 14.206 14.206 0 0 0 13.19 44.083 Q 15.95 46.876 20.235 47.487 A 17.847 17.847 0 0 0 22.754 47.658 Z" vector-effect="non-scaling-stroke"/></g></svg>