<svg width="53.568" height="71.729" viewBox="0 0 53.568 71.729" xmlns="http://www.w3.org/2000/svg"><g id="svgGroup" stroke-linecap="round" fill-rule="evenodd" font-size="9pt" stroke="#000" stroke-width="0.25mm" fill="#000" style="stroke:#000;stroke-width:0.25mm;fill:#000"><path d="M 0 71.729 L 0 0.001 L 32.275 0.001 A 27.674 27.674 0 0 1 38.931 0.76 A 19.694 19.694 0 0 1 47.705 5.396 A 17.618 17.618 0 0 1 52.978 14.815 A 26.577 26.577 0 0 1 53.564 20.557 A 22.042 22.042 0 0 1 48.34 35.182 Q 43.115 41.407 32.275 41.407 L 9.717 41.407 L 9.717 71.729 L 0 71.729 Z M 29.053 8.35 L 9.717 8.35 L 9.717 33.204 L 29.053 33.204 Q 35.596 33.204 39.673 30.421 Q 43.75 27.638 43.75 20.606 A 16.432 16.432 0 0 0 43.287 16.559 A 9.734 9.734 0 0 0 37.891 9.864 Q 34.668 8.35 29.053 8.35 Z" vector-effect="non-scaling-stroke"/></g></svg>