<svg width="46.144" height="74.319" viewBox="0 0 46.144 74.319" xmlns="http://www.w3.org/2000/svg"><g id="svgGroup" stroke-linecap="round" fill-rule="evenodd" font-size="9pt" stroke="#000" stroke-width="0.25mm" fill="#000" style="stroke:#000;stroke-width:0.25mm;fill:#000"><path d="M 37.794 8.45 L 37.794 1.175 L 46.144 1.175 L 46.144 74.319 L 37.306 74.319 L 37.306 47.464 A 15.68 15.68 0 0 1 31.587 52.857 A 18.533 18.533 0 0 1 31.227 53.054 A 16.467 16.467 0 0 1 27.014 54.578 Q 25.151 54.992 23 55.095 A 30.521 30.521 0 0 1 21.534 55.13 A 20.031 20.031 0 0 1 8.588 50.385 A 27.137 27.137 0 0 1 6.593 48.587 Q 1.276 43.309 0.247 33.583 A 46.831 46.831 0 0 1 0.001 28.665 A 41.772 41.772 0 0 1 0.942 19.552 A 29.007 29.007 0 0 1 6.178 8.059 A 21.273 21.273 0 0 1 12.037 2.695 A 19.209 19.209 0 0 1 22.169 0.003 Q 28.663 0.003 33.106 3.274 Q 35.119 4.723 36.998 7.3 A 28.647 28.647 0 0 1 37.794 8.45 Z M 9.181 28.03 A 40.28 40.28 0 0 0 9.448 32.811 Q 9.895 36.538 11.085 39.407 A 14.866 14.866 0 0 0 13.71 43.707 Q 17.17 47.561 23.146 47.561 A 15.009 15.009 0 0 0 28.44 46.68 Q 32.497 45.16 34.813 41.023 A 17.949 17.949 0 0 0 35.792 38.968 A 23.514 23.514 0 0 0 37.021 34.707 Q 37.696 31.25 37.696 26.858 Q 37.696 21.463 36.37 17.487 A 18.958 18.958 0 0 0 35.597 15.53 Q 32.032 7.766 23.048 7.766 A 11.855 11.855 0 0 0 14.504 11.36 A 17.001 17.001 0 0 0 13.258 12.722 A 15.306 15.306 0 0 0 10.695 17.418 Q 9.204 21.657 9.181 27.839 A 52.199 52.199 0 0 0 9.181 28.03 Z" vector-effect="non-scaling-stroke"/></g></svg>