<svg width="25.439" height="53.467" viewBox="0 0 25.439 53.467" xmlns="http://www.w3.org/2000/svg"><g id="svgGroup" stroke-linecap="round" fill-rule="evenodd" font-size="9pt" stroke="#000" stroke-width="0.25mm" fill="#000" style="stroke:#000;stroke-width:0.25mm;fill:#000"><path d="M 0 53.467 L 0 1.172 L 8.35 1.172 L 8.35 10.205 A 9.513 9.513 0 0 1 9.221 8.539 Q 10.249 6.936 12.14 5 A 43.744 43.744 0 0 1 13.379 3.784 A 13.977 13.977 0 0 1 17.76 0.917 A 12.85 12.85 0 0 1 22.607 0 Q 22.852 0 23.438 0.049 Q 23.977 0.094 25.221 0.222 A 321.537 321.537 0 0 1 25.439 0.244 L 25.439 9.522 A 15.06 15.06 0 0 0 24.689 9.4 A 11.42 11.42 0 0 0 23.999 9.326 A 17.547 17.547 0 0 0 23.219 9.287 A 22.524 22.524 0 0 0 22.559 9.278 A 16.492 16.492 0 0 0 18.357 9.782 A 11.382 11.382 0 0 0 12.354 13.55 A 14.913 14.913 0 0 0 8.789 23.389 L 8.789 53.467 L 0 53.467 Z" vector-effect="non-scaling-stroke"/></g></svg>