<svg width="43.165" height="55.666" viewBox="0 0 43.165 55.666" xmlns="http://www.w3.org/2000/svg"><g id="svgGroup" stroke-linecap="round" fill-rule="evenodd" font-size="9pt" stroke="#000" stroke-width="0.25mm" fill="#000" style="stroke:#000;stroke-width:0.25mm;fill:#000"><path d="M 0 37.257 L 8.447 37.257 Q 8.708 40.188 9.598 42.207 A 8.598 8.598 0 0 0 10.645 43.995 A 9.873 9.873 0 0 0 14.918 47.079 Q 17.874 48.243 22.168 48.243 A 19.08 19.08 0 0 0 26.758 47.712 A 15.505 15.505 0 0 0 30.762 46.119 A 7.448 7.448 0 0 0 33.19 43.975 Q 34.473 42.164 34.473 39.552 A 6.006 6.006 0 0 0 33.981 37.08 Q 33.263 35.468 31.494 34.425 A 10.535 10.535 0 0 0 30.354 33.884 Q 28.435 33.092 24.777 32.14 A 108.491 108.491 0 0 0 23.975 31.935 L 16.992 30.177 A 62.802 62.802 0 0 1 13.507 29.212 Q 10.17 28.176 8.038 27.006 A 14.743 14.743 0 0 1 7.129 26.466 A 13.235 13.235 0 0 1 3.796 23.56 Q 1.483 20.667 1.465 16.666 A 13.955 13.955 0 0 1 1.465 16.603 A 16.696 16.696 0 0 1 2.488 10.65 A 14.833 14.833 0 0 1 6.812 4.591 Q 12.158 0.001 21.191 0.001 A 31.629 31.629 0 0 1 27.549 0.596 Q 31.208 1.348 33.963 3.049 A 15.479 15.479 0 0 1 38.232 6.935 A 16.228 16.228 0 0 1 40.734 11.722 Q 41.453 13.987 41.406 16.407 L 33.105 16.407 Q 32.861 13.429 31.006 10.987 Q 28.031 7.581 20.768 7.522 A 31.696 31.696 0 0 0 20.508 7.52 A 20.929 20.929 0 0 0 17.764 7.688 Q 16.359 7.875 15.216 8.268 A 8.249 8.249 0 0 0 12.964 9.425 Q 10.4 11.329 10.4 14.454 A 5.837 5.837 0 0 0 12.582 19.07 A 9.12 9.12 0 0 0 13.77 19.923 A 11.593 11.593 0 0 0 15.251 20.692 Q 16.744 21.348 18.866 21.903 A 39.998 39.998 0 0 0 19.531 22.071 L 25.342 23.487 Q 34.569 25.723 37.866 27.819 A 9.455 9.455 0 0 1 38.037 27.931 A 10.989 10.989 0 0 1 42.936 35.649 A 17.301 17.301 0 0 1 43.164 38.526 A 16.067 16.067 0 0 1 38.192 50.268 A 21.032 21.032 0 0 1 37.866 50.587 A 16.432 16.432 0 0 1 31.805 54.189 Q 27.572 55.665 21.729 55.665 Q 10.059 55.665 5.2 50.367 A 19.655 19.655 0 0 1 0.129 38.936 A 25.242 25.242 0 0 1 0 37.257 Z" vector-effect="non-scaling-stroke"/></g></svg>