<svg width="24.316" height="67.725" viewBox="0 0 24.316 67.725" xmlns="http://www.w3.org/2000/svg"><g id="svgGroup" stroke-linecap="round" fill-rule="evenodd" font-size="9pt" stroke="#000" stroke-width="0.25mm" fill="#000" style="stroke:#000;stroke-width:0.25mm;fill:#000"><path d="M 7.08 14.6 L 7.08 0 L 15.967 0 L 15.967 14.6 L 24.316 14.6 L 24.316 21.777 L 15.967 21.777 L 15.967 55.908 A 6.215 6.215 0 0 0 16.098 57.233 Q 16.46 58.889 17.822 59.57 Q 18.848 60.107 21.24 60.107 A 36.957 36.957 0 0 0 21.899 60.101 A 45.835 45.835 0 0 0 22.607 60.083 A 19.822 19.822 0 0 0 23.191 60.054 Q 23.706 60.022 24.316 59.961 L 24.316 66.895 Q 22.803 67.334 21.167 67.529 A 27.499 27.499 0 0 1 19.074 67.695 A 34.168 34.168 0 0 1 17.627 67.725 Q 14.266 67.725 12.085 66.785 A 6.422 6.422 0 0 1 9.277 64.575 A 11.552 11.552 0 0 1 7.579 60.763 Q 7.178 59.178 7.099 57.316 A 21.857 21.857 0 0 1 7.08 56.396 L 7.08 21.777 L 0 21.777 L 0 14.6 L 7.08 14.6 Z" vector-effect="non-scaling-stroke"/></g></svg>