<svg width="42.09" height="53.712" viewBox="0 0 42.09 53.712" xmlns="http://www.w3.org/2000/svg"><g id="svgGroup" stroke-linecap="round" fill-rule="evenodd" font-size="9pt" stroke="#000" stroke-width="0.25mm" fill="#000" style="stroke:#000;stroke-width:0.25mm;fill:#000"><path d="M 0 0 L 8.984 0 L 8.984 34.717 A 20.709 20.709 0 0 0 9.148 37.405 Q 9.327 38.763 9.698 39.897 A 10.011 10.011 0 0 0 10.254 41.26 Q 12.598 45.947 18.994 45.947 A 15.712 15.712 0 0 0 24.044 45.186 Q 28.583 43.652 30.914 39.026 A 17.113 17.113 0 0 0 31.494 37.744 A 20.047 20.047 0 0 0 32.523 34.336 Q 33.289 30.771 33.301 25.84 A 64.616 64.616 0 0 0 33.301 25.684 L 33.301 0 L 42.09 0 L 42.09 52.295 L 33.789 52.295 L 33.887 44.58 A 17.729 17.729 0 0 1 29.639 49.609 A 18.146 18.146 0 0 1 19.622 53.611 A 23.484 23.484 0 0 1 17.432 53.711 A 25.873 25.873 0 0 1 11.85 53.152 Q 8.496 52.41 6.083 50.682 A 12.998 12.998 0 0 1 2.197 46.24 A 15.804 15.804 0 0 1 0.775 42.544 Q 0.315 40.748 0.128 38.618 A 35.184 35.184 0 0 1 0 35.547 L 0 0 Z" vector-effect="non-scaling-stroke"/></g></svg>