<svg width="47.803" height="73.731" viewBox="0 0 47.803 73.731" xmlns="http://www.w3.org/2000/svg"><g id="svgGroup" stroke-linecap="round" fill-rule="evenodd" font-size="9pt" stroke="#000" stroke-width="0.25mm" fill="#000" style="stroke:#000;stroke-width:0.25mm;fill:#000"><path d="M 23.975 42.578 L 38.086 0 L 47.803 0 Q 45.947 5.029 39.551 22.949 A 1831.417 1831.417 0 0 1 37.256 29.376 Q 33.96 38.55 31.543 44.922 A 541.182 541.182 0 0 1 28.844 51.88 Q 23.34 65.765 20.801 69.336 A 9.627 9.627 0 0 1 16.039 72.828 Q 14.38 73.42 12.323 73.624 A 23.011 23.011 0 0 1 10.059 73.73 A 39.317 39.317 0 0 1 9.184 73.721 Q 7.953 73.694 7.202 73.584 A 15.183 15.183 0 0 1 6.405 73.443 Q 6.034 73.369 5.617 73.27 A 33.493 33.493 0 0 1 4.736 73.047 L 4.736 65.039 Q 6.466 65.518 7.475 65.719 A 10.919 10.919 0 0 0 8.057 65.82 A 16.786 16.786 0 0 0 8.791 65.91 Q 9.193 65.949 9.549 65.961 A 9.123 9.123 0 0 0 9.863 65.967 A 11.764 11.764 0 0 0 11.134 65.903 Q 12.43 65.762 13.222 65.307 A 2.987 2.987 0 0 0 13.452 65.161 A 7.432 7.432 0 0 0 15.381 63.184 A 3.075 3.075 0 0 0 15.513 62.932 Q 15.903 62.13 17.139 59.18 A 514.942 514.942 0 0 0 17.844 57.489 Q 18.8 55.184 19.311 53.873 A 72.589 72.589 0 0 0 19.336 53.809 L 0 0 L 9.961 0 L 23.975 42.578 Z" vector-effect="non-scaling-stroke"/></g></svg>