<svg width="33.35" height="93.408" viewBox="0 0 33.35 93.408" xmlns="http://www.w3.org/2000/svg"><g id="svgGroup" stroke-linecap="round" fill-rule="evenodd" font-size="9pt" stroke="#000" stroke-width="0.25mm" fill="#000" style="stroke:#000;stroke-width:0.25mm;fill:#000"><path d="M 21.191 65.869 L 21.191 73.242 A 23.349 23.349 0 0 0 21.484 77.081 Q 22.248 81.649 25 83.96 A 16.741 16.741 0 0 0 29.582 86.742 A 14.882 14.882 0 0 0 33.35 87.695 L 33.35 93.408 A 34.988 34.988 0 0 1 26.551 92.071 A 24.914 24.914 0 0 1 18.97 88.306 Q 13.281 84.082 13.281 74.414 L 13.281 64.355 A 27.913 27.913 0 0 0 13.119 61.248 Q 12.762 58.072 11.621 55.957 Q 8.594 50.342 0 49.414 L 0 43.848 A 23.764 23.764 0 0 0 4.41 42.928 Q 9.48 41.313 11.621 37.451 A 11.009 11.009 0 0 0 12.6 34.976 Q 13.26 32.55 13.281 29.128 A 36.818 36.818 0 0 0 13.281 28.906 L 13.281 20.947 Q 13.281 14.077 15.51 9.34 A 17.304 17.304 0 0 1 17.261 6.396 A 12.021 12.021 0 0 1 21.279 3.038 Q 24.989 1.027 31.006 0.249 A 53.464 53.464 0 0 1 33.35 0 L 33.35 5.566 A 16.196 16.196 0 0 0 29.031 6.5 A 10.891 10.891 0 0 0 22.705 12.5 A 14.708 14.708 0 0 0 21.843 15.161 Q 21.191 17.999 21.191 21.973 L 21.191 27.441 Q 21.191 34.222 19.643 38.074 A 12.808 12.808 0 0 1 19.385 38.672 A 12.984 12.984 0 0 1 10.831 45.86 A 21.668 21.668 0 0 1 6.689 46.631 A 19.548 19.548 0 0 1 11.84 47.744 A 12.974 12.974 0 0 1 19.385 54.834 A 17.689 17.689 0 0 1 20.45 58.125 Q 20.821 59.761 21.006 61.697 A 43.907 43.907 0 0 1 21.191 65.869 Z" vector-effect="non-scaling-stroke"/></g></svg>