<svg width="33.35" height="93.408" viewBox="0 0 33.35 93.408" xmlns="http://www.w3.org/2000/svg"><g id="svgGroup" stroke-linecap="round" fill-rule="evenodd" font-size="9pt" stroke="#000" stroke-width="0.25mm" fill="#000" style="stroke:#000;stroke-width:0.25mm;fill:#000"><path d="M 12.158 27.441 L 12.158 21.973 Q 12.158 16.236 10.959 12.975 A 11.019 11.019 0 0 0 10.645 12.207 Q 7.91 6.25 0 5.566 L 0 0 A 39.184 39.184 0 0 1 6.121 0.951 Q 13.791 2.828 17.09 7.813 A 14.263 14.263 0 0 1 18.817 11.51 Q 19.942 15.071 20.015 20.229 A 51.103 51.103 0 0 1 20.02 20.947 L 20.02 28.906 Q 20.02 34.375 21.68 37.402 Q 24.707 42.92 33.35 43.848 L 33.35 49.414 A 21.723 21.723 0 0 0 28.842 50.326 Q 26.199 51.186 24.343 52.735 A 11.027 11.027 0 0 0 21.68 56.006 A 12.582 12.582 0 0 0 20.605 58.891 Q 20.257 60.294 20.116 61.957 A 28.395 28.395 0 0 0 20.02 64.355 L 20.02 74.414 A 26.776 26.776 0 0 1 19.57 79.506 Q 18.42 85.431 14.331 88.379 Q 8.643 92.48 0 93.408 L 0 87.695 A 15.47 15.47 0 0 0 5.255 86.073 A 14.073 14.073 0 0 0 8.691 83.521 Q 12.158 80.029 12.158 73.242 L 12.158 65.869 A 44.503 44.503 0 0 1 12.335 61.77 Q 12.716 57.656 13.924 54.926 A 13.454 13.454 0 0 1 13.965 54.834 A 13.141 13.141 0 0 1 22.819 47.307 A 20.718 20.718 0 0 1 26.611 46.631 A 20.626 20.626 0 0 1 21.583 45.567 A 12.791 12.791 0 0 1 13.965 38.721 Q 12.158 34.814 12.158 27.441 Z" vector-effect="non-scaling-stroke"/></g></svg>